<svg xmlns="http://www.w3.org/2000/svg" xmlns:xlink="http://www.w3.org/1999/xlink" fill="none" version="1.1" width="52" height="45" viewBox="0 0 52 45"><defs><clipPath id="master_svg0_33_00102"><rect x="0" y="0" width="52" height="45" rx="0"/></clipPath></defs><g><g clip-path="url(#master_svg0_33_00102)"><g><path d="M36.334729296875,45.211181640625C24.223129296875,45.211181640625,12.220329296875,45.211181640625,0.217530178724,45.211181640625C0.2175297378,30.211181640625,0.2175297378,15.211181640625,0.217529296875,0.211183982835C17.550829296875,0.211182698395,34.884229296875,0.211182698395,52.217529296875,0.211181640625C52.217529296875,15.211181640625,52.217529296875,30.211181640625,52.217529296875,45.211181640625C46.959529296875,45.211181640625,41.701529296875,45.211181640625,36.334729296875,45.211181640625ZM24.239329296875,38.326381640625C24.885229296875,39.834481640625,26.044929296875,40.740881640625,27.724229296875,40.755981640625C32.833929296875,40.801981640625,37.944829296875,40.809681640625,43.054429296875,40.754781640625C45.301129296875,40.730681640625,46.780429296875,39.210281640625,46.786529296875,37.036581640625C46.807229296875,29.681381640625,46.805729296875,22.326181640625,46.787829296875,14.971081640625C46.782529296875,12.780481640625,45.327729296875,11.157381640625,43.093029296875,11.236281640625C37.153729296875,11.446081640625,31.172929296875,10.502081640625,25.196829296875,11.682481640625C24.612729296875,10.709781640625,24.064629296875,9.714511640625,23.436829296875,8.769061640625C22.257329296875,6.992501640625,20.222229296875,6.506751640625,18.334529296875,7.553751640625C14.026829296875,9.942941640625,9.726109296875,12.344181640625,5.436299296875,14.763481640625C3.376989296875,15.924881640625,2.800419296875,17.924981640625,3.969279296875,19.912881640625C7.653259296875,26.178281640625,11.354329296875,32.434181640625,15.069229296875,38.682281640625C16.346529296875,40.830381640625,18.506529296875,41.341281640625,20.740929296875,40.093281640625C21.868929296875,39.463281640625,23.003429296875,38.844281640625,24.239329296875,38.326381640625Z" fill="none" fill-opacity="1" style="mix-blend-mode:passthrough"/></g><g><path d="M24.1351703125,38.22032421875C23.0035703125,38.84432421875,21.8690703125,39.46322421875,20.7410703125,40.09322421875C18.5065703125,41.34132421875,16.346670312500002,40.83042421875,15.0693703125,38.68222421875C11.354400312500001,32.43422421875,7.6533603125,26.17822421875,3.9693873125,19.91292421875C2.8005283125,17.92502421875,3.3770916625,15.92492421875,5.4364003125,14.763544218749999C9.7262203125,12.34424421875,14.0268703125,9.94296421875,18.3345703125,7.55376721875C20.2222703125,6.50677221875,22.2574703125,6.99251621875,23.4369703125,8.76908421875C24.0646703125,9.71453421875,24.6128703125,10.709774218749999,25.2431703125,11.818444218749999C28.3715703125,17.13272421875,31.4541703125,22.31092421875,34.5360703125,27.48952421875C35.9055703125,29.79062421875,35.350370312500004,31.75222421875,32.9882703125,33.10262421875C30.0286703125,34.79452421875,27.0853703125,36.51322421875,24.1351703125,38.22032421875Z" fill="#1F3151" fill-opacity="1" style="mix-blend-mode:passthrough"/></g><g><path d="M24.187255859375,38.27336953125C27.085405859375,36.51316953125,30.028685859375,34.79446953125,32.988215859375,33.10256953125C35.350355859375,31.75216953125,35.905555859375,29.79056953125,34.536055859375,27.48946953125C31.454115859375,22.31086953125,28.371605859375002,17.132679531249998,25.281455859375,11.88117853125C31.173045859375,10.502024531250001,37.153855859375,11.44609053125,43.093055859375,11.23628153125C45.327855859375,11.15733843125,46.782555859375,12.78050953125,46.787955859375,14.97106953125C46.805855859375,22.326169531250002,46.807355859375,29.68136953125,46.786655859375,37.036569531249995C46.780555859375,39.21026953125,45.301155859375,40.73066953125,43.054555859375,40.75476953125C37.944955859375,40.80966953125,32.834045859374996,40.801969531249995,27.724295859375,40.75596953125C26.045035859374998,40.74086953125,24.885288859375,39.83446953125,24.187255859375,38.27336953125Z" fill="#A5ACB9" fill-opacity="1" style="mix-blend-mode:passthrough"/></g></g></g></svg>